<svg version="1.1" id="Layer_1" xmlns="http://www.w3.org/2000/svg" xmlns:xlink="http://www.w3.org/1999/xlink" x="0px" y="0px"
	 width="100%" viewBox="0 0 677 369" enable-background="new 0 0 677 369" xml:space="preserve">
<path fill="#000000" opacity="1.000000" stroke="none" 
	d="
M505.000000,370.000000 
	C336.706757,370.000000 168.913498,370.000000 1.060127,370.000000 
	C1.060127,247.069489 1.060127,124.138939 1.060127,1.104192 
	C226.543274,1.104192 452.086609,1.104192 677.814941,1.104192 
	C677.814941,123.999771 677.814941,246.999863 677.814941,370.000000 
	C620.472229,370.000000 562.986084,370.000000 505.000000,370.000000 
M386.868683,42.504055 
	C386.563721,42.408623 386.258759,42.313190 385.553711,42.055508 
	C385.553711,42.055508 385.129150,41.977032 385.050568,41.250397 
	C380.548767,34.871441 374.678711,32.610359 367.260284,34.338051 
	C365.837067,34.669510 364.372101,34.828114 362.922119,35.037064 
	C357.947540,35.753941 352.971008,36.457748 347.139740,37.025574 
	C336.909851,38.032894 326.675201,38.995075 316.451874,40.064980 
	C310.604919,40.676884 304.764252,41.377975 298.942291,42.192574 
	C290.270599,43.405903 281.596069,44.630272 272.973816,46.141289 
	C271.015320,46.484505 268.262604,47.640343 267.701996,49.116043 
	C267.138428,50.599495 268.300110,53.552650 269.670990,54.806351 
	C274.051270,58.812237 278.827911,62.396187 283.563202,65.996147 
	C285.193512,67.235580 287.152100,68.043213 289.000000,69.000305 
	C289.000000,69.000305 288.957886,69.045319 289.143127,69.697266 
	C294.368683,73.971718 299.594208,78.246178 305.085938,82.738373 
	C308.990570,71.587486 309.021423,71.541557 314.448334,68.912994 
	C314.448334,68.912994 314.859314,68.755516 315.708313,68.912537 
	C319.068024,68.278465 322.404907,67.293022 325.791504,67.073433 
	C338.003662,66.281578 350.100403,67.443634 362.840546,69.997818 
	C369.181274,72.449875 375.840088,74.310440 381.781158,77.505592 
	C389.005493,81.390877 395.779846,86.185722 402.456146,90.993591 
	C407.573822,94.679047 412.905731,98.582413 410.192505,106.484734 
	C409.662048,108.029633 410.271301,109.965828 410.351776,111.655807 
	C417.499023,111.030075 424.080017,110.453918 431.014038,109.846855 
	C431.014038,112.963219 431.094330,115.276512 430.997559,117.582367 
	C430.786377,122.615341 432.402252,127.997742 427.608093,132.150665 
	C426.815369,132.837341 427.476837,135.509216 427.857727,137.174103 
	C428.463348,139.820984 429.398376,142.392517 429.845337,145.677856 
	C428.999329,147.914047 428.005554,150.106796 427.333221,152.394043 
	C424.602997,161.682205 425.210571,162.392075 435.807770,161.963974 
	C436.858887,161.919876 437.910004,161.875793 439.748688,161.977371 
	C444.403229,161.414780 444.544037,161.199631 442.998657,156.111160 
	C442.962158,155.115173 443.237610,153.967422 442.838898,153.147629 
	C440.087402,147.490921 439.205811,142.138123 442.559418,136.111343 
	C443.472046,134.471252 440.276917,130.951111 440.110016,128.223877 
	C439.707184,121.640892 439.979340,115.016602 439.979340,108.372467 
	C445.552094,107.513039 450.679108,106.691177 455.816650,105.941345 
	C459.053650,105.468887 460.337769,102.639755 458.308197,99.889496 
	C457.241852,98.444565 455.813232,97.216347 454.385864,96.097420 
	C448.755768,91.683952 443.106812,87.291580 437.372437,83.015343 
	C434.292084,80.718269 431.024078,78.672905 427.742401,76.244286 
	C427.742401,76.244286 427.469604,76.154976 427.105560,75.689377 
	C425.816772,74.439636 424.528015,73.189903 423.165436,71.171440 
	C422.660339,70.795601 422.155273,70.419762 421.497925,69.959038 
	C421.497925,69.959038 421.325378,69.984039 420.994751,69.367302 
	C420.001556,68.886429 419.008392,68.405556 418.002380,67.986061 
	C418.002380,67.986061 418.064453,67.977158 417.842163,67.335129 
	C416.571991,66.525009 415.301819,65.714897 414.020782,64.977661 
	C414.020782,64.977661 414.093750,64.988007 413.945343,64.445229 
	C413.631744,64.262672 413.318115,64.080116 413.026337,63.962906 
	C413.026337,63.962906 413.089233,63.934784 412.936005,63.421188 
	C412.643433,63.227097 412.350830,63.033009 411.763519,62.218876 
	C409.457275,60.549526 407.151031,58.880177 404.444244,57.079895 
	C404.444244,57.079895 404.027710,57.016155 403.886658,56.516014 
	C403.601349,56.342129 403.316010,56.168240 402.733856,55.375309 
	C399.154877,52.576004 395.575928,49.776695 391.995514,47.008690 
	C391.995514,47.008690 392.025757,47.000343 391.764069,46.395554 
	C390.848663,45.916931 389.933228,45.438309 388.999176,45.002750 
	C388.999176,45.002750 389.042877,44.985447 388.901215,44.471745 
	C388.603912,44.299561 388.306610,44.127380 387.995850,44.003101 
	C387.995850,44.003101 388.043701,43.989487 387.900269,43.472141 
	C387.600098,43.300037 387.299927,43.127934 386.994019,43.006939 
	C386.994019,43.006939 387.043518,42.992939 386.868683,42.504055 
M357.006165,74.999695 
	C357.006165,74.999695 357.052185,74.959953 356.768585,74.412247 
	C356.181946,74.345665 355.595276,74.279083 354.349396,74.081573 
	C353.903656,74.112137 353.457916,74.142700 352.251556,73.978546 
	C347.826904,71.928223 343.242371,71.435211 338.379425,71.965126 
	C330.574310,72.815636 322.726135,73.266602 314.911682,74.043182 
	C314.277222,74.106232 313.762421,75.373711 313.068085,76.493851 
	C313.068085,76.493851 312.989838,76.918678 312.304352,77.237816 
	C310.182068,84.482460 308.059753,91.727104 305.475311,99.115677 
	C305.183594,99.301262 305.012054,99.565018 304.204407,99.926353 
	C301.123871,101.942551 298.043335,103.958748 295.003357,105.997559 
	C295.003357,105.997559 294.976471,105.959236 294.261261,105.971588 
	C292.811768,106.961044 291.362244,107.950500 289.975006,108.964989 
	C289.975006,108.964989 289.961487,108.899223 289.458893,109.071480 
	C289.358704,109.379799 289.258545,109.688118 288.860382,110.625488 
	C283.231567,116.724884 277.602753,122.824280 271.260620,129.032166 
	C269.817749,131.343887 268.374878,133.655609 266.991821,135.995773 
	C266.991821,135.995773 266.954254,135.941223 266.320526,136.291687 
	C263.613220,143.861328 260.905914,151.430984 258.077484,159.496124 
	C258.119507,159.660889 258.161499,159.825653 257.828308,160.723358 
	C254.578491,173.922562 255.072433,187.042801 259.511078,199.828003 
	C261.799774,206.420349 265.105103,212.659744 267.991211,219.000809 
	C267.991211,219.000809 267.932251,219.039429 267.987000,219.761475 
	C269.634125,222.194443 271.281250,224.627396 272.988708,227.031555 
	C272.988708,227.031555 272.923187,227.018509 273.007965,227.582825 
	C273.321045,227.774582 273.634125,227.966324 274.272614,228.743286 
	C276.813965,232.290344 279.398193,235.807602 281.888550,239.390091 
	C289.181335,249.880997 295.170135,260.820129 295.089752,274.180664 
	C295.053497,280.209351 299.973419,286.688110 304.355133,286.878876 
	C315.110779,287.347168 325.872620,287.733582 336.636047,287.942261 
	C344.081848,288.086609 351.534485,287.879883 359.663910,287.884064 
	C360.448761,287.595825 361.233612,287.307587 362.504089,286.952942 
	C362.504089,286.952942 362.976044,286.820709 363.899078,286.967133 
	C366.202271,286.970398 368.505432,286.977417 370.808624,286.976135 
	C377.117615,286.972626 381.006500,284.452820 382.658173,278.568542 
	C383.517731,275.506378 383.457733,272.186096 383.962280,268.535400 
	C383.962280,268.535400 384.067627,268.076019 384.722168,267.696075 
	C384.758392,266.450531 384.794647,265.204956 384.969910,263.197113 
	C385.095184,261.275360 384.575592,258.966003 385.457428,257.499023 
	C389.266724,251.161789 393.441406,245.041016 397.568054,238.898529 
	C402.545868,231.489136 407.842377,224.283035 412.571594,216.720444 
	C417.449005,208.920883 420.262939,200.288620 421.793976,190.606247 
	C421.815308,188.363419 421.836609,186.120590 421.977722,183.492752 
	C421.977722,183.492752 421.994171,183.089874 422.702515,182.584793 
	C423.188293,174.882538 423.790802,167.166412 419.997589,160.003525 
	C419.997589,160.003525 420.034088,159.989609 420.007629,159.237122 
	C419.956512,158.486877 419.905396,157.736618 419.978790,156.200394 
	C416.790283,145.235580 413.460876,134.342026 404.205078,124.771996 
	C403.326355,129.122253 402.653748,132.312454 402.043671,135.514557 
	C401.511871,138.305618 399.886993,141.550217 400.751404,143.835541 
	C405.517944,156.437668 409.791473,169.095093 407.965912,182.788895 
	C407.021027,189.876602 406.297455,197.395996 403.329620,203.712936 
	C399.370941,212.138870 393.290070,219.561371 388.188507,227.458618 
	C383.785553,234.274399 378.512756,240.742264 375.386993,248.111496 
	C371.965637,256.177734 370.566498,265.101715 368.192078,274.004089 
	C365.131592,274.004089 361.811920,274.148712 358.519409,273.913086 
	C357.572296,273.845276 356.703613,272.681061 356.170807,271.247162 
	C356.461273,266.168427 356.751770,261.089722 357.001465,255.992569 
	C357.001465,255.992569 357.020294,256.033051 357.505157,255.893784 
	C357.342133,255.583160 357.179108,255.272522 356.924011,254.474609 
	C356.924011,254.474609 356.783173,253.999084 357.198700,253.267883 
	C357.397583,250.158417 357.596466,247.048950 357.957001,243.553741 
	C357.957001,243.553741 358.045593,243.145004 358.651001,242.870193 
	C358.710663,242.237137 358.770325,241.604095 358.976166,240.349731 
	C359.260223,239.581375 359.544281,238.813034 359.967499,237.245193 
	C360.246399,235.165268 360.525299,233.085327 360.950378,230.203629 
	C364.186768,220.389694 367.059296,210.433212 370.823151,200.825912 
	C372.536499,196.452560 375.852478,192.649719 378.736481,188.809616 
	C381.268555,185.438080 379.850708,183.167419 376.664276,182.535233 
	C371.555573,181.521591 366.267792,181.410675 361.008606,180.209686 
	C360.019806,178.454987 359.031006,176.700272 358.007935,174.999878 
	C358.007935,174.999878 358.063110,174.966843 358.013885,174.229202 
	C356.682373,172.805923 355.350861,171.382660 353.998260,170.000534 
	C353.998260,170.000534 354.037842,169.976715 353.746368,169.385025 
	C352.779388,169.573853 351.812408,169.762695 350.190521,170.204102 
	C348.799042,173.519638 347.417694,176.839630 345.975006,180.132721 
	C345.923187,180.251022 345.265747,180.104004 345.019135,179.214478 
	C343.704437,171.217834 342.589264,163.181442 341.007233,155.238052 
	C339.890778,149.632431 338.678528,149.187912 332.311554,151.291000 
	C330.093292,159.065689 327.352234,166.743042 327.992004,175.002457 
	C327.992004,175.002457 327.963165,174.901443 327.343414,174.951660 
	C326.593933,175.240952 325.844482,175.530258 325.016113,175.878204 
	C325.016113,175.878204 325.112915,175.860992 324.681213,175.162567 
	C321.968781,175.523987 317.275024,175.204559 316.877441,176.361465 
	C314.862213,182.225754 310.346497,180.567520 306.340485,181.120209 
	C303.917297,181.454514 299.733887,182.547470 299.642578,183.588943 
	C299.419250,186.137054 300.869385,188.970810 302.081024,191.479477 
	C305.596741,198.758530 309.728333,205.765564 312.849304,213.202057 
	C315.515320,219.554489 317.117432,226.353424 319.048370,233.808685 
	C319.719116,239.813705 320.390015,245.818726 321.060547,251.823776 
	C321.733337,257.849152 322.405762,263.874603 322.975220,270.595215 
	C322.947266,271.062622 322.919342,271.529999 322.960571,271.984070 
	C322.960571,271.984070 322.944855,271.915405 322.248566,272.230469 
	C318.376678,272.773041 314.504822,273.315582 310.667297,273.853333 
	C310.109253,272.835144 309.596130,271.898956 309.007324,270.088898 
	C307.441650,263.331085 307.184052,255.874573 304.028137,249.966187 
	C298.116333,238.898392 290.778778,228.550568 283.568420,218.228699 
	C274.892792,205.809189 270.764587,191.794434 270.313599,177.103348 
	C270.054596,168.666275 273.408417,160.164215 274.628143,151.618942 
	C275.381805,146.338867 279.263885,143.345993 281.756439,139.294067 
	C288.970398,127.567055 298.326019,118.834602 311.046326,113.242271 
	C318.904144,109.787666 326.619507,107.579826 335.262848,106.525764 
	C346.240448,105.187050 355.784546,109.094345 366.210022,111.692657 
	C368.791687,112.827278 371.373383,113.961906 373.981781,115.030525 
	C373.981781,115.030525 373.917511,115.061157 374.166168,115.703857 
	C381.671875,122.206802 389.177612,128.709747 396.876434,135.379974 
	C397.116119,134.275375 397.470184,132.643524 397.974243,130.238129 
	C398.644257,128.427017 399.439240,126.651115 399.961426,124.798340 
	C401.710754,118.591454 403.362610,112.357094 405.748779,105.842842 
	C409.230957,101.668373 405.589844,99.962128 402.753448,97.392921 
	C402.203735,96.920433 401.653992,96.447945 400.810272,95.315674 
	C398.556549,93.525276 396.302795,91.734871 394.000000,89.998169 
	C394.000000,89.998169 394.049011,89.947334 393.802460,89.287865 
	C391.537323,88.179489 389.272217,87.071114 386.994263,86.008560 
	C386.994263,86.008560 387.039246,85.993042 386.869659,85.501724 
	C386.564453,85.405487 386.259277,85.309258 385.551605,85.053818 
	C385.551605,85.053818 385.124237,84.985352 384.834991,84.362801 
	C383.864136,83.986435 382.893311,83.610069 381.489105,83.093506 
	C381.489105,83.093506 381.045105,82.992149 380.892700,82.500519 
	C380.595215,82.416740 380.297729,82.332954 379.536926,82.099632 
	C379.536926,82.099632 379.067413,81.970917 379.003540,81.175217 
	C376.672455,80.435799 374.341339,79.696388 371.996643,79.004379 
	C371.996643,79.004379 372.041656,78.984261 371.700958,78.336571 
	C368.103973,77.283546 364.506958,76.230530 360.190582,75.081764 
	C359.466919,75.114037 358.743286,75.146309 357.539520,74.995987 
	C357.369202,74.978409 357.198914,74.960831 357.006165,74.999695 
M299.351685,294.205017 
	C299.299011,294.817749 299.246338,295.430511 299.084412,296.672668 
	C299.126740,297.094818 299.169098,297.516998 299.040741,298.673889 
	C300.394165,300.044464 301.747559,301.415039 303.496307,302.915070 
	C303.496307,302.915070 303.901398,303.009827 304.160400,303.718414 
	C306.140411,303.856537 308.120453,303.994629 311.017059,304.002594 
	C319.646149,303.996399 328.275208,303.990173 337.183655,304.637360 
	C338.164154,304.453247 339.144623,304.269135 340.049377,304.004272 
	C340.049377,304.004272 339.968750,304.080139 340.911194,303.999786 
	C348.255920,303.929230 355.600647,303.858673 363.866547,303.939850 
	C367.006683,303.947052 370.155090,304.099823 373.284637,303.921295 
	C376.537598,303.735718 379.612915,302.851166 379.889465,298.849396 
	C380.166260,294.844482 378.448273,292.231720 373.624573,291.251740 
	C370.425201,291.243652 367.225830,291.235535 363.349487,291.106506 
	C362.894623,291.146942 362.439728,291.187378 361.101624,291.060791 
	C358.408051,291.119507 355.714508,291.178223 352.380341,291.092865 
	C351.943787,291.061005 351.507233,291.029144 350.716309,290.335419 
	C348.808563,290.620483 346.900787,290.905579 344.271332,291.075012 
	C343.541748,291.035583 342.812134,290.996155 341.616699,290.238495 
	C338.073914,290.493103 334.531128,290.747681 330.261353,291.066681 
	C329.532806,291.036682 328.804230,291.006683 327.779816,290.271545 
	C322.517426,290.501465 317.255035,290.731415 311.323212,291.053894 
	C310.877502,291.111115 310.431763,291.168335 309.123932,291.059235 
	C305.983856,291.765778 301.756500,289.013062 299.998779,293.989685 
	C299.998779,293.989685 299.941803,293.953217 299.351685,294.205017 
M325.992981,333.006104 
	C325.992981,333.006104 325.946198,333.076050 326.206635,333.747162 
	C332.082581,337.383514 338.227753,339.482727 345.917664,337.075195 
	C348.531311,335.673218 351.144928,334.271210 354.482666,333.074371 
	C355.715881,332.042786 356.949097,331.011200 358.558289,329.855988 
	C358.796204,329.703674 358.936432,329.487854 359.710693,328.853943 
	C360.237244,327.408447 360.763794,325.962921 361.383423,324.261932 
	C346.907104,324.261932 333.088531,324.261932 318.439819,324.261932 
	C319.472168,326.332855 320.226562,327.846130 320.922607,329.909576 
	C321.234558,330.246399 321.546478,330.583252 322.534485,331.078094 
	C323.668427,331.741699 324.802338,332.405304 325.992981,333.006104 
M306.109314,307.963409 
	C302.576324,309.543915 300.991669,312.540436 302.250946,315.939362 
	C303.473236,319.238464 306.141174,321.402710 310.324036,321.086823 
	C312.869720,320.894623 315.487274,321.902649 318.069733,321.887787 
	C321.422394,321.868530 324.772308,321.368225 329.030457,321.000580 
	C335.422089,321.345428 341.810150,321.820801 348.206421,321.997101 
	C354.177246,322.161682 360.160736,322.128082 366.130524,321.933380 
	C368.353333,321.860840 370.864990,321.605652 372.693329,320.511749 
	C375.741730,318.687897 377.978424,315.933044 376.881866,311.869385 
	C376.094849,308.952759 374.377411,307.354584 370.696930,307.277954 
	C349.932709,307.198822 329.168457,307.112732 308.404175,307.080627 
	C307.881409,307.079803 307.357758,307.674194 306.109314,307.963409 
z"/>
<path fill="#4886DF" opacity="1.000000" stroke="none" 
	d="
M421.103271,191.072586 
	C420.262939,200.288620 417.449005,208.920883 412.571594,216.720444 
	C407.842377,224.283035 402.545868,231.489136 397.568054,238.898529 
	C393.441406,245.041016 389.266724,251.161789 385.457428,257.499023 
	C384.575592,258.966003 385.095184,261.275360 384.620728,263.724121 
	C384.203552,265.526093 384.135590,266.801056 384.067627,268.076019 
	C384.067627,268.076019 383.962280,268.535400 383.582031,268.931274 
	C382.480377,271.465179 381.477051,273.553528 381.090424,275.750427 
	C379.918823,282.407745 376.139496,285.741211 369.283661,286.005646 
	C367.173798,286.086975 365.078186,286.538635 362.976044,286.820709 
	C362.976044,286.820709 362.504089,286.952942 361.935638,286.962891 
	C360.572815,287.258575 359.778442,287.544281 358.984070,287.830017 
	C351.534485,287.879883 344.081848,288.086609 336.636047,287.942261 
	C325.872620,287.733582 315.110779,287.347168 304.355133,286.878876 
	C299.973419,286.688110 295.053497,280.209351 295.089752,274.180664 
	C295.170135,260.820129 289.181335,249.880997 281.888550,239.390091 
	C279.398193,235.807602 276.813965,232.290344 273.973511,228.232361 
	C273.423981,227.487122 273.173584,227.252808 272.923187,227.018494 
	C272.923187,227.018509 272.988708,227.031555 272.963135,226.673203 
	C271.269135,223.889709 269.600708,221.464569 267.932251,219.039429 
	C267.932251,219.039429 267.991211,219.000809 267.956848,218.646286 
	C267.479645,216.877136 267.172302,215.402191 266.573181,214.057205 
	C260.425140,200.255997 257.023651,185.931396 257.991882,170.714951 
	C258.218719,167.150055 258.141083,163.565765 258.203491,159.990402 
	C258.161499,159.825653 258.119507,159.660889 258.435272,159.086578 
	C261.513458,151.098434 264.233856,143.519821 266.954254,135.941223 
	C266.954254,135.941223 266.991821,135.995773 267.285278,135.880188 
	C269.043854,133.484314 270.508911,131.204010 271.973969,128.923676 
	C277.602753,122.824280 283.231567,116.724884 289.166260,110.145370 
	C289.682831,109.440323 289.845947,109.184975 289.961487,108.899223 
	C289.961487,108.899223 289.975006,108.964989 290.320435,108.960777 
	C292.102722,107.957458 293.539581,106.958351 294.976471,105.959244 
	C294.976471,105.959236 295.003357,105.997559 295.357178,105.968262 
	C298.794220,103.928284 301.877472,101.917610 304.960724,99.906937 
	C305.012054,99.565018 305.183594,99.301262 306.025696,98.922791 
	C307.692627,96.807602 308.809174,94.885292 310.050751,93.268562 
	C310.148712,96.061623 309.247589,100.225296 310.246063,100.745903 
	C314.526154,102.977592 319.382324,105.434502 323.997131,105.375031 
	C330.528259,105.290878 337.025574,103.028412 343.555939,101.795441 
	C344.257782,101.662926 345.086060,102.173943 345.850555,102.403526 
	C354.300629,104.941071 362.694275,107.693161 371.222717,109.931854 
	C375.410675,111.031204 378.548126,112.803589 379.612061,116.935242 
	C377.487854,116.246750 375.702667,115.653954 373.917511,115.061157 
	C373.917511,115.061157 373.981781,115.030525 373.847260,114.739059 
	C371.110138,113.314674 368.507568,112.181747 365.904968,111.048828 
	C355.784546,109.094345 346.240448,105.187050 335.262848,106.525764 
	C326.619507,107.579826 318.904144,109.787666 311.046326,113.242271 
	C298.326019,118.834602 288.970398,127.567055 281.756439,139.294067 
	C279.263885,143.345993 275.381805,146.338867 274.628143,151.618942 
	C273.408417,160.164215 270.054596,168.666275 270.313599,177.103348 
	C270.764587,191.794434 274.892792,205.809189 283.568420,218.228699 
	C290.778778,228.550568 298.116333,238.898392 304.028137,249.966187 
	C307.184052,255.874573 307.441650,263.331085 308.851044,270.821716 
	C309.257172,272.648590 309.739136,274.628632 310.395477,274.688202 
	C313.823853,274.999542 317.313293,275.003448 320.741516,274.684540 
	C321.554810,274.608887 322.214508,272.882477 322.944855,271.915405 
	C322.944855,271.915405 322.960571,271.984070 323.095154,271.822662 
	C323.179260,271.074188 323.128784,270.487091 323.078308,269.900024 
	C322.405762,263.874603 321.733337,257.849152 321.060547,251.823776 
	C320.390015,245.818726 319.719116,239.813705 319.269348,233.075485 
	C317.315338,217.565369 312.651581,203.672760 304.328613,191.195541 
	C299.839417,184.465668 299.965607,183.863434 308.099762,182.721634 
	C309.397217,182.539490 310.780731,182.784210 312.025085,182.455475 
	C313.670258,182.020889 315.281036,181.336655 316.792969,180.543182 
	C319.609589,179.064972 322.344177,177.430435 325.112915,175.860977 
	C325.112915,175.860992 325.016113,175.878204 325.123474,176.118149 
	C326.141602,175.872543 327.052399,175.386993 327.963165,174.901443 
	C327.963165,174.901443 327.992004,175.002457 328.172089,174.713440 
	C329.962952,167.005798 331.573730,159.587158 333.493958,152.090759 
	C339.526276,151.090027 339.593842,155.171295 340.332245,159.052750 
	C341.672180,166.096207 343.352386,173.074921 344.890564,180.080658 
	C345.265747,180.104004 345.923187,180.251022 345.975006,180.132721 
	C347.417694,176.839630 348.799042,173.519638 350.917999,170.102997 
	C352.442932,169.993515 353.240387,169.985123 354.037842,169.976715 
	C354.037842,169.976715 353.998260,170.000534 354.085449,170.314316 
	C355.469452,172.074356 356.766266,173.520599 358.063110,174.966843 
	C358.063110,174.966843 358.007935,174.999878 358.019836,175.352325 
	C359.039734,177.442612 360.047729,179.180420 361.055725,180.918243 
	C366.267792,181.410675 371.555573,181.521591 376.664276,182.535233 
	C379.850708,183.167419 381.268555,185.438080 378.736481,188.809616 
	C375.852478,192.649719 372.536499,196.452560 370.823151,200.825912 
	C367.059296,210.433212 364.186768,220.389694 360.580750,230.751144 
	C358.497711,233.457352 356.756958,235.614502 359.828369,238.044693 
	C359.544281,238.813034 359.260223,239.581375 358.743225,240.906311 
	C358.355377,242.023590 358.200500,242.584305 358.045593,243.145004 
	C358.045593,243.145004 357.957001,243.553741 357.569153,243.950363 
	C357.048584,247.564346 356.915894,250.781723 356.783173,253.999084 
	C356.783173,253.999084 356.924011,254.474609 356.963196,254.986084 
	C357.008331,255.676056 357.014313,255.854553 357.020294,256.033051 
	C357.020294,256.033051 357.001465,255.992569 356.718658,256.232239 
	C354.499512,261.583832 353.369629,266.728790 355.798981,272.019531 
	C356.703613,272.681061 357.572296,273.845276 358.519409,273.913086 
	C361.811920,274.148712 365.131592,274.004089 368.192078,274.004089 
	C370.566498,265.101715 371.965637,256.177734 375.386993,248.111496 
	C378.512756,240.742264 383.785553,234.274399 388.188507,227.458618 
	C393.290070,219.561371 399.370941,212.138870 403.329620,203.712936 
	C406.297455,197.395996 407.021027,189.876602 407.965912,182.788895 
	C409.791473,169.095093 405.517944,156.437668 400.751404,143.835541 
	C399.886993,141.550217 401.511871,138.305618 402.043671,135.514557 
	C402.653748,132.312454 403.326355,129.122253 404.205078,124.771996 
	C413.460876,134.342026 416.790283,145.235580 419.766296,156.831390 
	C419.713928,158.304810 419.873993,159.147217 420.034058,159.989609 
	C420.034088,159.989609 419.997589,160.003525 419.997009,160.421112 
	C420.307587,168.212250 420.618744,175.585815 420.753326,183.300461 
	C420.752258,186.118561 420.927765,188.595566 421.103271,191.072586 
M322.979401,192.306107 
	C322.002686,186.627838 321.522614,186.404999 315.306152,189.120590 
	C312.366333,189.508514 311.772919,191.146378 312.911743,193.667892 
	C314.127899,196.360657 315.270111,199.093735 316.629120,201.713501 
	C318.625671,205.562317 320.785980,209.326202 322.998169,213.457153 
	C322.998169,213.457153 323.045380,213.806519 323.013031,214.623093 
	C323.943024,218.947998 325.166016,223.233826 325.749023,227.605011 
	C327.626099,241.678238 329.221741,255.788895 331.068726,269.866364 
	C331.255859,271.292694 332.409302,272.592224 333.007416,273.982452 
	C333.007416,273.982452 332.975861,273.875427 333.656311,274.345276 
	C337.447235,273.955383 341.238129,273.565491 345.469421,273.015411 
	C345.469421,273.015411 345.921295,272.891296 346.457275,272.985504 
	C346.703003,270.319946 346.948761,267.654419 347.050110,264.335022 
	C347.092316,263.892761 347.134521,263.450531 347.807770,262.597992 
	C348.532867,255.699219 349.257965,248.800430 350.069763,241.468536 
	C350.069763,241.468536 350.214203,241.051117 350.745667,240.526779 
	C351.948090,235.225281 353.272186,229.947296 354.303589,224.612732 
	C354.850220,221.785583 354.888519,218.860138 355.049683,215.205124 
	C358.217255,207.244415 361.384857,199.283707 364.416626,191.664352 
	C360.998596,190.672714 357.550476,189.672348 353.864807,188.603073 
	C353.013214,192.333939 352.008789,196.875748 350.929321,201.399612 
	C350.441132,203.445450 349.538177,205.424240 349.293732,207.489136 
	C348.891663,210.885818 346.618347,212.201019 343.903839,211.708069 
	C339.928955,210.986221 338.189270,208.162384 339.519562,203.314041 
	C340.089264,194.743759 337.600769,186.661606 336.835724,178.304367 
	C336.328308,178.359451 335.820923,178.414551 335.313538,178.469635 
	C335.193268,179.249908 335.072998,180.030197 334.294006,181.267075 
	C333.570709,184.838440 332.847412,188.409790 331.636780,192.444519 
	C329.106842,198.267487 325.871857,193.686874 322.966949,193.021683 
	C322.966949,193.021683 322.955231,193.086014 322.979401,192.306107 
z"/>
<path fill="#4087EA" opacity="1.000000" stroke="none" 
	d="
M404.027710,57.016155 
	C404.027710,57.016155 404.444244,57.079895 404.733246,57.434036 
	C405.360596,58.515274 405.698914,59.242371 406.042725,60.351337 
	C406.910034,62.175053 407.514069,63.887539 408.685913,65.004028 
	C411.363892,67.555542 415.021942,69.347244 416.994659,72.305870 
	C419.807617,76.524681 423.623932,75.901466 427.469604,76.154976 
	C427.469604,76.154976 427.742401,76.244286 427.665161,76.755859 
	C427.502380,80.957687 428.933563,83.620895 432.547943,84.988335 
	C435.131683,85.965866 437.721436,86.993408 440.139618,88.309067 
	C441.061920,88.810867 441.513245,90.178276 442.179199,91.151199 
	C440.911377,91.609619 439.643005,92.438484 438.375763,92.436790 
	C436.619537,92.434441 434.864166,91.807800 433.108429,91.448463 
	C432.850098,91.878220 432.591766,92.307983 432.333405,92.737740 
	C433.767578,94.632736 434.974274,97.789970 436.694061,98.099945 
	C438.794678,98.478531 441.325928,96.467438 443.583160,95.526375 
	C444.063965,97.217735 444.446777,100.303658 445.038361,100.344208 
	C447.591431,100.519226 450.205658,99.802101 453.810791,99.256287 
	C453.979675,99.522018 454.762573,100.753838 455.844757,102.456612 
	C448.878967,105.364731 440.128143,99.065010 435.820251,108.729248 
	C435.360260,107.088127 435.483887,106.277847 435.333008,105.522400 
	C435.066803,104.189613 434.633179,102.890259 434.269653,101.576904 
	C433.080139,102.355751 431.944366,103.239998 430.685303,103.882568 
	C429.525208,104.474617 428.261292,105.011467 426.989380,105.190109 
	C425.941895,105.337227 424.091949,104.443428 423.833832,104.832024 
	C420.402252,109.998444 417.235260,106.005913 413.773529,105.036865 
	C416.512329,101.100098 416.520264,101.009445 413.706085,98.113846 
	C410.371002,94.682274 406.936340,91.343437 403.700195,87.821625 
	C402.190918,86.179054 401.047607,84.200211 399.699860,82.320030 
	C396.012665,85.449257 393.728424,81.324898 391.488892,79.417542 
	C389.101593,77.384331 387.678650,74.218819 385.840210,71.555618 
	C382.755554,74.088364 376.269043,74.493996 373.689484,70.961342 
	C369.541138,65.280342 364.220245,67.107887 358.606781,67.100983 
	C343.802643,63.701641 329.408844,63.650211 314.971985,66.649857 
	C313.842224,61.904110 310.098877,62.592606 306.946808,61.984726 
	C300.475616,60.736736 294.034851,59.330997 286.242859,57.712055 
	C289.231079,53.200184 291.615540,49.599895 294.426819,45.990669 
	C306.307526,44.595448 317.786133,43.382904 329.205414,41.754234 
	C335.519592,40.853680 341.734344,39.256027 348.453186,37.988670 
	C352.837494,37.708546 356.839752,37.800087 360.671478,37.036160 
	C368.870087,35.401600 376.693329,34.806282 383.290863,41.326584 
	C383.709229,41.740093 384.507568,41.769138 385.129150,41.977036 
	C385.129150,41.977032 385.553711,42.055508 385.906128,42.305527 
	C386.481750,42.770405 386.743408,42.916203 387.043518,42.992939 
	C387.043518,42.992939 386.994019,43.006939 387.131104,43.191269 
	C387.481049,43.637924 387.739532,43.842552 388.043701,43.989487 
	C388.043701,43.989487 387.995850,44.003101 388.134460,44.188622 
	C388.483673,44.635868 388.740265,44.839634 389.042877,44.985447 
	C389.042877,44.985447 388.999176,45.002750 389.129425,45.285057 
	C390.181702,46.045029 391.103729,46.522690 392.025757,47.000347 
	C392.025757,47.000343 391.995514,47.008690 392.079010,47.332577 
	C395.111786,50.447422 398.061066,53.238377 401.114685,56.294441 
	C402.155243,56.711750 403.091461,56.863953 404.027710,57.016155 
M415.650696,86.174171 
	C417.741699,91.074715 420.538696,91.974213 423.729126,87.963776 
	C421.004517,87.184578 418.560608,86.485672 415.650696,86.174171 
M427.283142,97.920433 
	C427.099304,97.952492 426.915436,97.984543 426.731598,98.016594 
	C426.912384,98.060936 427.093140,98.105270 427.283142,97.920433 
z"/>
<path fill="#4186E8" opacity="1.000000" stroke="none" 
	d="
M379.951080,117.030930 
	C378.548126,112.803589 375.410675,111.031204 371.222717,109.931854 
	C362.694275,107.693161 354.300629,104.941071 345.850555,102.403526 
	C345.086060,102.173943 344.257782,101.662926 343.555939,101.795441 
	C337.025574,103.028412 330.528259,105.290878 323.997131,105.375031 
	C319.382324,105.434502 314.526154,102.977592 310.246063,100.745903 
	C309.247589,100.225296 310.148712,96.061623 310.092468,92.884880 
	C311.043732,87.816643 312.078400,83.437653 313.470856,79.044052 
	C317.219879,77.361374 320.611115,75.693306 324.470764,74.016068 
	C327.086670,73.988968 329.234344,73.941071 331.381531,73.958626 
	C338.591827,74.017586 345.801971,74.099892 353.012177,74.173256 
	C353.457916,74.142700 353.903656,74.112137 354.906738,74.304977 
	C355.993469,74.672241 356.522827,74.816101 357.052185,74.959961 
	C357.052185,74.959953 357.006165,74.999695 357.101562,75.092834 
	C357.196930,75.185982 357.608368,75.314812 357.608368,75.314812 
	C357.608368,75.314812 358.019623,75.178589 358.019623,75.178589 
	C358.743286,75.146309 359.466919,75.114037 360.728210,75.397339 
	C363.918854,79.896240 368.436157,77.938553 372.041656,78.984261 
	C372.041656,78.984261 371.996643,79.004379 372.148254,79.298813 
	C374.555695,80.385811 376.811554,81.178360 379.067413,81.970917 
	C379.067413,81.970917 379.536926,82.099632 379.915070,82.334946 
	C380.508362,82.774132 380.759003,82.914757 381.045105,82.992149 
	C381.045105,82.992149 381.489105,83.093506 381.864685,83.445358 
	C383.201599,84.193253 384.162933,84.589302 385.124237,84.985352 
	C385.124237,84.985352 385.551605,85.053818 385.905151,85.301888 
	C386.481018,85.764366 386.741211,85.912056 387.039246,85.993042 
	C387.039246,85.993042 386.994263,86.008560 387.089661,86.329666 
	C389.473053,87.749626 391.761047,88.848480 394.049011,89.947334 
	C394.049011,89.947334 394.000000,89.998169 394.042908,90.325272 
	C396.425293,92.426727 398.764801,94.201096 401.104279,95.975456 
	C401.653992,96.447945 402.203735,96.920433 402.904572,98.041473 
	C403.721069,101.171097 404.386444,103.652176 405.051819,106.133255 
	C403.362610,112.357094 401.710754,118.591454 399.961426,124.798340 
	C399.439240,126.651115 398.644257,128.427017 397.541687,130.610474 
	C396.181335,130.680511 395.033722,130.628006 394.360870,130.035934 
	C389.503693,125.762222 384.742615,121.379257 379.951080,117.030930 
z"/>
<path fill="#4786DF" opacity="1.000000" stroke="none" 
	d="
M359.019775,67.142784 
	C364.220245,67.107887 369.541138,65.280342 373.689484,70.961342 
	C376.269043,74.493996 382.755554,74.088364 385.840210,71.555618 
	C387.678650,74.218819 389.101593,77.384331 391.488892,79.417542 
	C393.728424,81.324898 396.012665,85.449257 399.699860,82.320030 
	C401.047607,84.200211 402.190918,86.179054 403.700195,87.821625 
	C406.936340,91.343437 410.371002,94.682274 413.706085,98.113846 
	C416.520264,101.009445 416.512329,101.100098 413.773529,105.036865 
	C417.235260,106.005913 420.402252,109.998444 423.833832,104.832024 
	C424.091949,104.443428 425.941895,105.337227 426.989380,105.190109 
	C428.261292,105.011467 429.525208,104.474617 430.685303,103.882568 
	C431.944366,103.239998 433.080139,102.355751 434.269653,101.576904 
	C434.633179,102.890259 435.066803,104.189613 435.333008,105.522400 
	C435.483887,106.277847 435.360260,107.088127 435.820251,108.729248 
	C440.128143,99.065010 448.878967,105.364731 455.844757,102.456612 
	C454.762573,100.753838 453.979675,99.522018 453.810791,99.256287 
	C450.205658,99.802101 447.591431,100.519226 445.038361,100.344208 
	C444.446777,100.303658 444.063965,97.217735 443.583160,95.526375 
	C441.325928,96.467438 438.794678,98.478531 436.694061,98.099945 
	C434.974274,97.789970 433.767578,94.632736 432.333405,92.737740 
	C432.591766,92.307983 432.850098,91.878220 433.108429,91.448463 
	C434.864166,91.807800 436.619537,92.434441 438.375763,92.436790 
	C439.643005,92.438484 440.911377,91.609619 442.179199,91.151199 
	C441.513245,90.178276 441.061920,88.810867 440.139618,88.309067 
	C437.721436,86.993408 435.131683,85.965866 432.547943,84.988335 
	C428.933563,83.620895 427.502380,80.957687 427.714355,76.890701 
	C431.024078,78.672905 434.292084,80.718269 437.372437,83.015343 
	C443.106812,87.291580 448.755768,91.683952 454.385864,96.097420 
	C455.813232,97.216347 457.241852,98.444565 458.308197,99.889496 
	C460.337769,102.639755 459.053650,105.468887 455.816650,105.941345 
	C450.679108,106.691177 445.552094,107.513039 439.979340,108.372467 
	C439.979340,115.016602 439.707184,121.640892 440.110016,128.223877 
	C440.276917,130.951111 443.472046,134.471252 442.559418,136.111343 
	C439.205811,142.138123 440.087402,147.490921 442.838898,153.147629 
	C443.237610,153.967422 442.962158,155.115173 442.812988,156.775192 
	C441.405243,158.903381 440.183167,160.367554 438.961121,161.831711 
	C437.910004,161.875793 436.858887,161.919876 435.226501,161.597198 
	C427.347260,158.020813 427.433228,158.049789 430.103729,150.125610 
	C430.624268,148.580978 430.188660,146.714142 430.194092,144.995911 
	C429.398376,142.392517 428.463348,139.820984 427.857727,137.174103 
	C427.476837,135.509216 426.815369,132.837341 427.608093,132.150665 
	C432.402252,127.997742 430.786377,122.615341 430.997559,117.582367 
	C431.094330,115.276512 431.014038,112.963219 431.014038,109.846855 
	C424.080017,110.453918 417.499023,111.030075 410.351776,111.655807 
	C410.271301,109.965828 409.662048,108.029633 410.192505,106.484734 
	C412.905731,98.582413 407.573822,94.679047 402.456146,90.993591 
	C395.779846,86.185722 389.005493,81.390877 381.781158,77.505592 
	C375.840088,74.310440 369.181274,72.449875 362.332031,69.647034 
	C360.888947,68.578423 359.954346,67.860603 359.019775,67.142784 
z"/>
<path fill="#4584E2" opacity="1.000000" stroke="none" 
	d="
M351.070679,290.997284 
	C351.507233,291.029144 351.943787,291.061005 353.044891,291.330719 
	C356.467926,291.454987 359.226379,291.341400 361.984863,291.227814 
	C362.439728,291.187378 362.894623,291.146942 364.050751,291.336304 
	C367.872009,291.695343 370.991974,291.824585 374.111969,291.953827 
	C378.448273,292.231720 380.166260,294.844482 379.889465,298.849396 
	C379.612915,302.851166 376.537598,303.735718 373.284637,303.921295 
	C370.155090,304.099823 367.006683,303.947052 363.033264,303.702148 
	C354.789551,303.669647 347.379150,303.874878 339.968750,304.080139 
	C339.968750,304.080139 340.049377,304.004272 339.688110,303.981445 
	C338.519348,303.967072 337.711823,303.975525 336.904297,303.983948 
	C328.275208,303.990173 319.646149,303.996399 310.229431,303.851379 
	C307.595001,303.470032 305.748199,303.239929 303.901398,303.009827 
	C303.901398,303.009827 303.496307,302.915070 303.201355,302.548218 
	C301.674774,300.767303 300.443085,299.353210 299.211426,297.939148 
	C299.169098,297.516998 299.126740,297.094818 299.295105,296.121948 
	C299.651123,295.031921 299.796478,294.492554 299.941833,293.953217 
	C299.941803,293.953217 299.998779,293.989685 300.343445,293.912109 
	C303.787415,292.964874 306.886749,292.095215 309.986053,291.225586 
	C310.431763,291.168335 310.877502,291.111115 312.001770,291.226685 
	C317.812103,291.258545 322.943878,291.117584 328.075684,290.976685 
	C328.804230,291.006683 329.532806,291.036682 330.966248,291.249146 
	C335.141602,291.273285 338.612091,291.114990 342.082550,290.956726 
	C342.812134,290.996155 343.541748,291.035583 344.949951,291.296509 
	C347.442596,291.344452 349.256622,291.170868 351.070679,290.997284 
z"/>
<path fill="#4584E2" opacity="1.000000" stroke="none" 
	d="
M371.155579,308.053894 
	C374.377411,307.354584 376.094849,308.952759 376.881866,311.869385 
	C377.978424,315.933044 375.741730,318.687897 372.693329,320.511749 
	C370.864990,321.605652 368.353333,321.860840 366.130524,321.933380 
	C360.160736,322.128082 354.177246,322.161682 348.206421,321.997101 
	C341.810150,321.820801 335.422089,321.345428 328.411560,320.751282 
	C321.840118,319.830841 315.818176,319.500092 309.971619,318.308685 
	C307.852692,317.876892 304.904114,315.635986 304.534485,313.781952 
	C303.862305,310.410034 306.968384,309.246124 310.496765,308.986145 
	C328.528687,308.989655 346.095642,309.021210 363.662231,308.955994 
	C365.769287,308.948181 367.874390,308.415161 370.274109,308.106232 
	C370.763733,308.075867 370.959656,308.064880 371.155579,308.053894 
z"/>
<path fill="#4186E8" opacity="1.000000" stroke="none" 
	d="
M294.000000,45.999599 
	C291.615540,49.599895 289.231079,53.200184 286.242859,57.712055 
	C294.034851,59.330997 300.475616,60.736736 306.946808,61.984726 
	C310.098877,62.592606 313.842224,61.904110 314.948364,66.938171 
	C314.929779,67.985855 314.894531,68.370682 314.859314,68.755516 
	C314.859314,68.755516 314.448334,68.912994 314.053101,68.913239 
	C313.657837,68.913490 313.301971,68.912720 313.095703,68.743118 
	C312.590424,68.384712 312.291351,68.195908 311.633423,68.079132 
	C309.532318,69.864571 307.140503,71.279999 306.188324,73.355782 
	C304.416412,77.218773 303.105774,77.915207 300.433563,74.780548 
	C299.031403,73.135712 298.251953,70.959991 296.879456,68.454788 
	C294.830902,68.607506 291.894409,68.826408 288.957886,69.045319 
	C288.957886,69.045319 289.000000,69.000305 288.923645,68.672485 
	C286.915802,63.127705 282.332642,60.694176 278.289917,57.850220 
	C280.835876,55.562260 283.085297,53.428677 286.353180,50.329121 
	C283.839508,50.696877 282.894623,50.835117 282.039337,50.617577 
	C284.376465,44.079769 289.731720,46.553360 294.000000,45.999599 
z"/>
<path fill="#4885E2" opacity="1.000000" stroke="none" 
	d="
M321.858429,330.920074 
	C321.546478,330.583252 321.234558,330.246399 320.981537,329.207550 
	C322.491058,327.357208 323.911682,325.261475 325.397064,325.214539 
	C334.954346,324.912567 344.525879,325.088226 354.092407,325.040680 
	C357.005432,325.026215 358.903717,325.995972 358.978912,329.208557 
	C358.936432,329.487854 358.796204,329.703674 358.005493,329.931274 
	C356.221344,330.960785 354.989960,331.915009 353.758575,332.869202 
	C351.144928,334.271210 348.531311,335.673218 345.179443,336.857300 
	C338.276184,335.451630 332.111206,334.263824 325.946198,333.076050 
	C325.946198,333.076050 325.992981,333.006104 325.912933,332.717957 
	C324.888885,330.923981 324.523956,327.893707 321.858429,330.920074 
z"/>
<path fill="#4F85D7" opacity="1.000000" stroke="none" 
	d="
M294.426819,45.990669 
	C289.731720,46.553360 284.376465,44.079769 281.601624,50.617882 
	C280.582733,50.975395 280.065247,50.876450 279.604065,50.995525 
	C277.540131,51.528439 275.492279,52.123482 273.438599,52.696098 
	C274.818390,54.378029 276.195740,56.061996 277.583069,57.737675 
	C277.682404,57.857655 277.854950,57.917030 277.993439,58.004593 
	C282.332642,60.694176 286.915802,63.127705 288.903992,68.696381 
	C287.152100,68.043213 285.193512,67.235580 283.563202,65.996147 
	C278.827911,62.396187 274.051270,58.812237 269.670990,54.806351 
	C268.300110,53.552650 267.138428,50.599495 267.701996,49.116043 
	C268.262604,47.640343 271.015320,46.484505 272.973816,46.141289 
	C281.596069,44.630272 290.270599,43.405903 298.942291,42.192574 
	C304.764252,41.377975 310.604919,40.676884 316.451874,40.064980 
	C326.675201,38.995075 336.909851,38.032894 347.567810,37.297569 
	C347.995850,37.569569 347.993896,37.972607 347.993896,37.972607 
	C341.734344,39.256027 335.519592,40.853680 329.205414,41.754234 
	C317.786133,43.382904 306.307526,44.595448 294.426819,45.990669 
z"/>
<path fill="#5B86C5" opacity="1.000000" stroke="none" 
	d="
M324.897064,175.511765 
	C322.344177,177.430435 319.609589,179.064972 316.792969,180.543182 
	C315.281036,181.336655 313.670258,182.020889 312.025085,182.455475 
	C310.780731,182.784210 309.397217,182.539490 308.099762,182.721634 
	C299.965607,183.863434 299.839417,184.465668 304.328613,191.195541 
	C312.651581,203.672760 317.315338,217.565369 319.340210,232.648575 
	C317.117432,226.353424 315.515320,219.554489 312.849304,213.202057 
	C309.728333,205.765564 305.596741,198.758530 302.081024,191.479477 
	C300.869385,188.970810 299.419250,186.137054 299.642578,183.588943 
	C299.733887,182.547470 303.917297,181.454514 306.340485,181.120209 
	C310.346497,180.567520 314.862213,182.225754 316.877441,176.361465 
	C317.275024,175.204559 321.968781,175.523987 324.897064,175.511765 
z"/>
<path fill="#5183C7" opacity="1.000000" stroke="none" 
	d="
M258.015900,160.356873 
	C258.141083,163.565765 258.218719,167.150055 257.991882,170.714951 
	C257.023651,185.931396 260.425140,200.255997 266.573181,214.057205 
	C267.172302,215.402191 267.479645,216.877136 267.936768,218.675186 
	C265.105103,212.659744 261.799774,206.420349 259.511078,199.828003 
	C255.072433,187.042801 254.578491,173.922562 258.015900,160.356873 
z"/>
<path fill="#4F85D7" opacity="1.000000" stroke="none" 
	d="
M289.050507,69.371292 
	C291.894409,68.826408 294.830902,68.607506 296.879456,68.454788 
	C298.251953,70.959991 299.031403,73.135712 300.433563,74.780548 
	C303.105774,77.915207 304.416412,77.218773 306.188324,73.355782 
	C307.140503,71.279999 309.532318,69.864571 311.825378,68.264069 
	C312.684814,68.555557 312.993378,68.734138 313.301971,68.912720 
	C313.301971,68.912720 313.657837,68.913490 313.834412,68.937790 
	C309.021423,71.541557 308.990570,71.587486 305.085938,82.738373 
	C299.594208,78.246178 294.368683,73.971718 289.050507,69.371292 
z"/>
<path fill="#5183C7" opacity="1.000000" stroke="none" 
	d="
M315.283813,68.834030 
	C314.894531,68.370682 314.929779,67.985855 314.988647,67.312721 
	C329.408844,63.650211 343.802643,63.701641 358.606781,67.100983 
	C359.954346,67.860603 360.888947,68.578423 361.955383,69.567108 
	C350.100403,67.443634 338.003662,66.281578 325.791504,67.073433 
	C322.404907,67.293022 319.068024,68.278465 315.283813,68.834030 
z"/>
<path fill="#4786DF" opacity="1.000000" stroke="none" 
	d="
M427.287598,75.922180 
	C423.623932,75.901466 419.807617,76.524681 416.994659,72.305870 
	C415.021942,69.347244 411.363892,67.555542 408.685913,65.004028 
	C407.514069,63.887539 406.910034,62.175053 406.332825,60.507858 
	C408.411133,61.521946 410.204742,62.761387 412.271729,63.995075 
	C412.726471,63.971146 412.907867,63.952965 413.089233,63.934784 
	C413.089233,63.934784 413.026337,63.962906 413.164429,64.142494 
	C413.566254,64.544060 413.829987,64.766029 414.093750,64.988007 
	C414.093750,64.988007 414.020782,64.977661 414.117737,65.278046 
	C415.497925,66.378014 416.781189,67.177582 418.064453,67.977158 
	C418.064453,67.977158 418.002380,67.986061 418.145599,68.276596 
	C419.300995,69.039429 420.313202,69.511734 421.325378,69.984039 
	C421.325378,69.984039 421.497925,69.959038 421.731262,70.276230 
	C422.389435,71.042336 422.814331,71.491249 423.239227,71.940170 
	C424.528015,73.189903 425.816772,74.439636 427.287598,75.922180 
z"/>
<path fill="#4D7FC8" opacity="1.000000" stroke="none" 
	d="
M310.031677,308.984985 
	C306.968384,309.246124 303.862305,310.410034 304.534485,313.781952 
	C304.904114,315.635986 307.852692,317.876892 309.971619,318.308685 
	C315.818176,319.500092 321.840118,319.830841 327.958038,320.788452 
	C324.772308,321.368225 321.422394,321.868530 318.069733,321.887787 
	C315.487274,321.902649 312.869720,320.894623 310.324036,321.086823 
	C306.141174,321.402710 303.473236,319.238464 302.250946,315.939362 
	C300.991669,312.540436 302.576324,309.543915 306.875061,307.978882 
	C308.443817,308.036224 309.246826,308.078064 310.041412,308.336121 
	C310.033020,308.552277 310.031677,308.984985 310.031677,308.984985 
z"/>
<path fill="#5183C7" opacity="1.000000" stroke="none" 
	d="
M379.612061,116.935234 
	C384.742615,121.379257 389.503693,125.762222 394.360870,130.035934 
	C395.033722,130.628006 396.181335,130.680511 397.466736,130.997238 
	C397.470184,132.643524 397.116119,134.275375 396.876434,135.379974 
	C389.177612,128.709747 381.671875,122.206802 374.041840,115.382507 
	C375.702667,115.653954 377.487854,116.246750 379.612061,116.935234 
z"/>
<path fill="#4D7FC8" opacity="1.000000" stroke="none" 
	d="
M348.453186,37.988670 
	C347.993896,37.972607 347.995850,37.569569 347.995544,37.368050 
	C352.971008,36.457748 357.947540,35.753941 362.922119,35.037064 
	C364.372101,34.828114 365.837067,34.669510 367.260284,34.338051 
	C374.678711,32.610359 380.548767,34.871441 385.089844,41.613716 
	C384.507568,41.769138 383.709229,41.740093 383.290863,41.326584 
	C376.693329,34.806282 368.870087,35.401600 360.671478,37.036160 
	C356.839752,37.800087 352.837494,37.708546 348.453186,37.988670 
z"/>
<path fill="#4D7FC8" opacity="1.000000" stroke="none" 
	d="
M352.631866,74.075897 
	C345.801971,74.099892 338.591827,74.017586 331.381531,73.958626 
	C329.234344,73.941071 327.086670,73.988968 324.060944,74.008553 
	C319.852478,74.700661 316.522247,75.391098 313.192017,76.081528 
	C313.762421,75.373711 314.277222,74.106232 314.911682,74.043182 
	C322.726135,73.266602 330.574310,72.815636 338.379425,71.965126 
	C343.242371,71.435211 347.826904,71.928223 352.631866,74.075897 
z"/>
<path fill="#5183C7" opacity="1.000000" stroke="none" 
	d="
M344.954834,179.647568 
	C343.352386,173.074921 341.672180,166.096207 340.332245,159.052750 
	C339.593842,155.171295 339.526276,151.090027 333.429077,151.762024 
	C333.022614,151.291077 332.990448,151.071106 332.958252,150.851120 
	C338.678528,149.187912 339.890778,149.632431 341.007233,155.238052 
	C342.589264,163.181442 343.704437,171.217834 344.954834,179.647568 
z"/>
<path fill="#78A1D9" opacity="1.000000" stroke="none" 
	d="
M310.049805,308.119934 
	C309.246826,308.078064 308.443817,308.036224 307.237671,307.992676 
	C307.357758,307.674194 307.881409,307.079803 308.404175,307.080627 
	C329.168457,307.112732 349.932709,307.198822 370.926270,307.665924 
	C370.959656,308.064880 370.763733,308.075867 369.807739,308.076721 
	C349.381683,308.084381 329.715759,308.102142 310.049805,308.119934 
z"/>
<path fill="#5B86C5" opacity="1.000000" stroke="none" 
	d="
M359.344788,329.031250 
	C358.903717,325.995972 357.005432,325.026215 354.092407,325.040680 
	C344.525879,325.088226 334.954346,324.912567 325.397064,325.214539 
	C323.911682,325.261475 322.491058,327.357208 321.010681,328.932465 
	C320.226562,327.846130 319.472168,326.332855 318.439819,324.261932 
	C333.088531,324.261932 346.907104,324.261932 361.383423,324.261932 
	C360.763794,325.962921 360.237244,327.408447 359.344788,329.031250 
z"/>
<path fill="#4D7FC8" opacity="1.000000" stroke="none" 
	d="
M363.437561,286.893921 
	C365.078186,286.538635 367.173798,286.086975 369.283661,286.005646 
	C376.139496,285.741211 379.918823,282.407745 381.090424,275.750427 
	C381.477051,273.553528 382.480377,271.465179 383.507416,269.154785 
	C383.457733,272.186096 383.517731,275.506378 382.658173,278.568542 
	C381.006500,284.452820 377.117615,286.972626 370.808624,286.976135 
	C368.505432,286.977417 366.202271,286.970398 363.437561,286.893921 
z"/>
<path fill="#4D7FC8" opacity="1.000000" stroke="none" 
	d="
M430.019714,145.336884 
	C430.188660,146.714142 430.624268,148.580978 430.103729,150.125610 
	C427.433228,158.049789 427.347260,158.020813 434.836121,161.533325 
	C425.210571,162.392075 424.602997,161.682205 427.333221,152.394043 
	C428.005554,150.106796 428.999329,147.914047 430.019714,145.336884 
z"/>
<path fill="#4D7FC8" opacity="1.000000" stroke="none" 
	d="
M313.113037,79.058670 
	C312.078400,83.437653 311.043732,87.816643 309.967407,92.579308 
	C308.809174,94.885292 307.692627,96.807602 306.256775,98.850830 
	C308.059753,91.727104 310.182068,84.482460 312.665741,77.434875 
	C313.055786,78.107521 313.084412,78.583092 313.113037,79.058670 
z"/>
<path fill="#4D7FC8" opacity="1.000000" stroke="none" 
	d="
M420.929901,182.959381 
	C420.618744,175.585815 420.307587,168.212250 420.006927,160.404266 
	C423.790802,167.166412 423.188293,174.882538 422.128967,182.834671 
	C421.555389,183.084549 421.115540,183.075668 421.069275,183.046341 
	C421.023010,183.017014 420.929901,182.959381 420.929901,182.959381 
z"/>
<path fill="#5183C7" opacity="1.000000" stroke="none" 
	d="
M266.637390,136.116455 
	C264.233856,143.519821 261.513458,151.098434 258.495850,158.838837 
	C260.905914,151.430984 263.613220,143.861328 266.637390,136.116455 
z"/>
<path fill="#5B86C5" opacity="1.000000" stroke="none" 
	d="
M332.634888,151.071060 
	C332.990448,151.071106 333.022614,151.291077 333.119659,151.839783 
	C331.573730,159.587158 329.962952,167.005798 328.121552,174.727768 
	C327.352234,166.743042 330.093292,159.065689 332.634888,151.071060 
z"/>
<path fill="#5183C7" opacity="1.000000" stroke="none" 
	d="
M326.076416,333.411621 
	C332.111206,334.263824 338.276184,335.451630 344.802429,336.853455 
	C338.227753,339.482727 332.082581,337.383514 326.076416,333.411621 
z"/>
<path fill="#4D7FC8" opacity="1.000000" stroke="none" 
	d="
M355.984894,271.633362 
	C353.369629,266.728790 354.499512,261.583832 356.739075,256.241455 
	C356.751770,261.089722 356.461273,266.168427 355.984894,271.633362 
z"/>
<path fill="#5183C7" opacity="1.000000" stroke="none" 
	d="
M322.596710,272.072937 
	C322.214508,272.882477 321.554810,274.608887 320.741516,274.684540 
	C317.313293,275.003448 313.823853,274.999542 310.395477,274.688202 
	C309.739136,274.628632 309.257172,272.648590 308.888885,271.258667 
	C309.596130,271.898956 310.109253,272.835144 310.667297,273.853333 
	C314.504822,273.315582 318.376678,272.773041 322.596710,272.072937 
z"/>
<path fill="#4886DF" opacity="1.000000" stroke="none" 
	d="
M313.470856,79.044052 
	C313.084412,78.583092 313.055786,78.107521 313.008484,77.275314 
	C312.989838,76.918678 313.068085,76.493851 313.130066,76.287689 
	C316.522247,75.391098 319.852478,74.700661 323.592499,74.017731 
	C320.611115,75.693306 317.219879,77.361374 313.470856,79.044052 
z"/>
<path fill="#4D7FC8" opacity="1.000000" stroke="none" 
	d="
M327.927734,290.624084 
	C322.943878,291.117584 317.812103,291.258545 312.336487,291.180420 
	C317.255035,290.731415 322.517426,290.501465 327.927734,290.624084 
z"/>
<path fill="#5183C7" opacity="1.000000" stroke="none" 
	d="
M401.010345,56.029335 
	C398.061066,53.238377 395.111786,50.447422 392.079712,47.316925 
	C395.575928,49.776695 399.154877,52.576004 402.545410,55.693367 
	C401.908081,56.017399 401.459229,56.023369 401.010345,56.029335 
z"/>
<path fill="#4D7FC8" opacity="1.000000" stroke="none" 
	d="
M304.582581,99.916641 
	C301.877472,101.917610 298.794220,103.928284 295.336884,105.956955 
	C298.043335,103.958748 301.123871,101.942551 304.582581,99.916641 
z"/>
<path fill="#78A1D9" opacity="1.000000" stroke="none" 
	d="
M340.439972,304.039978 
	C347.379150,303.874878 354.789551,303.669647 362.572662,303.626282 
	C355.600647,303.858673 348.255920,303.929230 340.439972,304.039978 
z"/>
<path fill="#4D7FC8" opacity="1.000000" stroke="none" 
	d="
M341.849609,290.597595 
	C338.612091,291.114990 335.141602,291.273285 331.329742,291.216919 
	C334.531128,290.747681 338.073914,290.493103 341.849609,290.597595 
z"/>
<path fill="#4D7FC8" opacity="1.000000" stroke="none" 
	d="
M371.871307,78.660416 
	C368.436157,77.938553 363.918854,79.896240 361.087921,75.445213 
	C364.506958,76.230530 368.103973,77.283546 371.871307,78.660416 
z"/>
<path fill="#4D7FC8" opacity="1.000000" stroke="none" 
	d="
M405.400299,105.988052 
	C404.386444,103.652176 403.721069,101.171097 403.025024,98.291794 
	C405.589844,99.962128 409.230957,101.668373 405.400299,105.988052 
z"/>
<path fill="#4D7FC8" opacity="1.000000" stroke="none" 
	d="
M356.990936,253.633484 
	C356.915894,250.781723 357.048584,247.564346 357.488281,244.143234 
	C357.596466,247.048950 357.397583,250.158417 356.990936,253.633484 
z"/>
<path fill="#4D7FC8" opacity="1.000000" stroke="none" 
	d="
M400.957275,95.645569 
	C398.764801,94.201096 396.425293,92.426727 394.067444,90.298416 
	C396.302795,91.734871 398.556549,93.525276 400.957275,95.645569 
z"/>
<path fill="#5183C7" opacity="1.000000" stroke="none" 
	d="
M411.998352,64.000824 
	C410.204742,62.761387 408.411133,61.521946 406.327393,60.125984 
	C405.698914,59.242371 405.360596,58.515274 404.933533,57.499500 
	C407.151031,58.880177 409.457275,60.549526 411.889526,62.819275 
	C412.009827,63.613392 412.004089,63.807110 411.998352,64.000824 
z"/>
<path fill="#5183C7" opacity="1.000000" stroke="none" 
	d="
M267.959625,219.400452 
	C269.600708,221.464569 271.269135,223.889709 272.932983,226.687592 
	C271.281250,224.627396 269.634125,222.194443 267.959625,219.400452 
z"/>
<path fill="#4D7FC8" opacity="1.000000" stroke="none" 
	d="
M421.448608,190.839417 
	C420.927765,188.595566 420.752258,186.118561 420.753326,183.300461 
	C420.929901,182.959381 421.023010,183.017014 421.174988,183.193695 
	C421.487335,183.556854 421.664337,183.725998 421.857941,183.877762 
	C421.836609,186.120590 421.815308,188.363419 421.448608,190.839417 
z"/>
<path fill="#5183C7" opacity="1.000000" stroke="none" 
	d="
M271.617310,128.977936 
	C270.508911,131.204010 269.043854,133.484314 267.255371,135.865967 
	C268.374878,133.655609 269.817749,131.343887 271.617310,128.977936 
z"/>
<path fill="#4D7FC8" opacity="1.000000" stroke="none" 
	d="
M359.897949,237.644943 
	C356.756958,235.614502 358.497711,233.457352 360.507660,231.152039 
	C360.525299,233.085327 360.246399,235.165268 359.897949,237.644943 
z"/>
<path fill="#4D7FC8" opacity="1.000000" stroke="none" 
	d="
M439.354919,161.904541 
	C440.183167,160.367554 441.405243,158.903381 442.837646,157.187805 
	C444.544037,161.199631 444.403229,161.414780 439.354919,161.904541 
z"/>
<path fill="#5183C7" opacity="1.000000" stroke="none" 
	d="
M366.057495,111.370743 
	C368.507568,112.181747 371.110138,113.314674 373.833893,114.772064 
	C371.373383,113.961906 368.791687,112.827278 366.057495,111.370743 
z"/>
<path fill="#4D7FC8" opacity="1.000000" stroke="none" 
	d="
M309.554993,291.142395 
	C306.886749,292.095215 303.787415,292.964874 300.316223,293.889465 
	C301.756500,289.013062 305.983856,291.765778 309.554993,291.142395 
z"/>
<path fill="#4D7FC8" opacity="1.000000" stroke="none" 
	d="
M379.035461,81.573067 
	C376.811554,81.178360 374.555695,80.385811 372.155029,79.275116 
	C374.341339,79.696388 376.672455,80.435799 379.035461,81.573067 
z"/>
<path fill="#4D7FC8" opacity="1.000000" stroke="none" 
	d="
M393.925720,89.617599 
	C391.761047,88.848480 389.473053,87.749626 387.096069,86.306747 
	C389.272217,87.071114 391.537323,88.179489 393.925720,89.617599 
z"/>
<path fill="#5183C7" opacity="1.000000" stroke="none" 
	d="
M361.032166,180.563965 
	C360.047729,179.180420 359.039734,177.442612 358.036987,175.325165 
	C359.031006,176.700272 360.019806,178.454987 361.032166,180.563965 
z"/>
<path fill="#5183C7" opacity="1.000000" stroke="none" 
	d="
M358.038513,174.598022 
	C356.766266,173.520599 355.469452,172.074356 354.096008,170.293747 
	C355.350861,171.382660 356.682373,172.805923 358.038513,174.598022 
z"/>
<path fill="#4D7FC8" opacity="1.000000" stroke="none" 
	d="
M304.030884,303.364136 
	C305.748199,303.239929 307.595001,303.470032 309.771118,303.916443 
	C308.120453,303.994629 306.140411,303.856537 304.030884,303.364136 
z"/>
<path fill="#4D7FC8" opacity="1.000000" stroke="none" 
	d="
M294.618866,105.965416 
	C293.539581,106.958351 292.102722,107.957458 290.289276,108.948257 
	C291.362244,107.950500 292.811768,106.961044 294.618866,105.965416 
z"/>
<path fill="#4D7FC8" opacity="1.000000" stroke="none" 
	d="
M299.126099,298.306519 
	C300.443085,299.353210 301.674774,300.767303 303.003693,302.483521 
	C301.747559,301.415039 300.394165,300.044464 299.126099,298.306519 
z"/>
<path fill="#5183C7" opacity="1.000000" stroke="none" 
	d="
M322.196472,330.999084 
	C324.523956,327.893707 324.888885,330.923981 325.884583,332.749329 
	C324.802338,332.405304 323.668427,331.741699 322.196472,330.999084 
z"/>
<path fill="#4D7FC8" opacity="1.000000" stroke="none" 
	d="
M373.868286,291.602783 
	C370.991974,291.824585 367.872009,291.695343 364.389221,291.396759 
	C367.225830,291.235535 370.425201,291.243652 373.868286,291.602783 
z"/>
<path fill="#4D7FC8" opacity="1.000000" stroke="none" 
	d="
M350.893494,290.666351 
	C349.256622,291.170868 347.442596,291.344452 345.310791,291.354340 
	C346.900787,290.905579 348.808563,290.620483 350.893494,290.666351 
z"/>
<path fill="#4D7FC8" opacity="1.000000" stroke="none" 
	d="
M361.543243,291.144287 
	C359.226379,291.341400 356.467926,291.454987 353.365173,291.402771 
	C355.714508,291.178223 358.408051,291.119507 361.543243,291.144287 
z"/>
<path fill="#5B86C5" opacity="1.000000" stroke="none" 
	d="
M354.120605,332.971802 
	C354.989960,331.915009 356.221344,330.960785 357.817505,329.993073 
	C356.949097,331.011200 355.715881,332.042786 354.120605,332.971802 
z"/>
<path fill="#5B86C5" opacity="1.000000" stroke="none" 
	d="
M417.953308,67.656143 
	C416.781189,67.177582 415.497925,66.378014 414.123169,65.241608 
	C415.301819,65.714897 416.571991,66.525009 417.953308,67.656143 
z"/>
<path fill="#4D7FC8" opacity="1.000000" stroke="none" 
	d="
M384.394897,267.886047 
	C384.135590,266.801056 384.203552,265.526093 384.551208,264.105286 
	C384.794647,265.204956 384.758392,266.450531 384.394897,267.886047 
z"/>
<path fill="#5B86C5" opacity="1.000000" stroke="none" 
	d="
M327.653290,174.926544 
	C327.052399,175.386993 326.141602,175.872543 325.162933,176.088821 
	C325.844482,175.530258 326.593933,175.240952 327.653290,174.926544 
z"/>
<path fill="#4786DF" opacity="1.000000" stroke="none" 
	d="
M401.114685,56.294441 
	C401.459229,56.023369 401.908081,56.017399 402.693848,56.002892 
	C403.316010,56.168240 403.601349,56.342129 403.957184,56.766083 
	C403.091461,56.863953 402.155243,56.711750 401.114685,56.294441 
z"/>
<path fill="#5183C7" opacity="1.000000" stroke="none" 
	d="
M391.894897,46.697952 
	C391.103729,46.522690 390.181702,46.045029 389.138733,45.263527 
	C389.933228,45.438309 390.848663,45.916931 391.894897,46.697952 
z"/>
<path fill="#5B86C5" opacity="1.000000" stroke="none" 
	d="
M421.160065,69.675674 
	C420.313202,69.511734 419.300995,69.039429 418.152008,68.245895 
	C419.008392,68.405556 420.001556,68.886429 421.160065,69.675674 
z"/>
<path fill="#4D7FC8" opacity="1.000000" stroke="none" 
	d="
M384.979614,84.674072 
	C384.162933,84.589302 383.201599,84.193253 382.081360,83.515457 
	C382.893311,83.610069 383.864136,83.986435 384.979614,84.674072 
z"/>
<path fill="#4D7FC8" opacity="1.000000" stroke="none" 
	d="
M359.323975,287.857056 
	C359.778442,287.544281 360.572815,287.258575 361.692810,286.996124 
	C361.233612,287.307587 360.448761,287.595825 359.323975,287.857056 
z"/>
<path fill="#78A1D9" opacity="1.000000" stroke="none" 
	d="
M337.043976,304.310669 
	C337.711823,303.975525 338.519348,303.967072 339.726013,304.021790 
	C339.144623,304.269135 338.164154,304.453247 337.043976,304.310669 
z"/>
<path fill="#4D7FC8" opacity="1.000000" stroke="none" 
	d="
M420.020844,159.613373 
	C419.873993,159.147217 419.713928,158.304810 419.704041,157.224396 
	C419.905396,157.736618 419.956512,158.486877 420.020844,159.613373 
z"/>
<path fill="#5183C7" opacity="1.000000" stroke="none" 
	d="
M353.892090,169.680878 
	C353.240387,169.985123 352.442932,169.993515 351.245453,169.976715 
	C351.812408,169.762695 352.779388,169.573853 353.892090,169.680878 
z"/>
<path fill="#4D7FC8" opacity="1.000000" stroke="none" 
	d="
M299.646759,294.079102 
	C299.796478,294.492554 299.651123,295.031921 299.349731,295.807251 
	C299.246338,295.430511 299.299011,294.817749 299.646759,294.079102 
z"/>
<path fill="#4D7FC8" opacity="1.000000" stroke="none" 
	d="
M356.910400,74.686104 
	C356.522827,74.816101 355.993469,74.672241 355.236389,74.370445 
	C355.595276,74.279083 356.181946,74.345665 356.910400,74.686104 
z"/>
<path fill="#5B86C5" opacity="1.000000" stroke="none" 
	d="
M423.202332,71.555801 
	C422.814331,71.491249 422.389435,71.042336 421.807373,70.318665 
	C422.155273,70.419762 422.660339,70.795601 423.202332,71.555801 
z"/>
<path fill="#4D7FC8" opacity="1.000000" stroke="none" 
	d="
M358.348297,243.007599 
	C358.200500,242.584305 358.355377,242.023590 358.670135,241.216965 
	C358.770325,241.604095 358.710663,242.237137 358.348297,243.007599 
z"/>
<path fill="#5183C7" opacity="1.000000" stroke="none" 
	d="
M323.026764,270.247620 
	C323.128784,270.487091 323.179260,271.074188 323.060577,271.829346 
	C322.919342,271.529999 322.947266,271.062622 323.026764,270.247620 
z"/>
<path fill="#4886DF" opacity="1.000000" stroke="none" 
	d="
M421.917847,183.685257 
	C421.664337,183.725998 421.487335,183.556854 421.221252,183.223022 
	C421.115540,183.075668 421.555389,183.084549 421.774780,183.087219 
	C421.994171,183.089874 421.977722,183.492752 421.917847,183.685257 
z"/>
<path fill="#4D7FC8" opacity="1.000000" stroke="none" 
	d="
M386.954468,85.747383 
	C386.741211,85.912056 386.481018,85.764366 386.106384,85.381485 
	C386.259277,85.309258 386.564453,85.405487 386.954468,85.747383 
z"/>
<path fill="#5B86C5" opacity="1.000000" stroke="none" 
	d="
M412.271729,63.995075 
	C412.004089,63.807110 412.009827,63.613392 412.036926,63.129295 
	C412.350830,63.033009 412.643433,63.227097 413.012634,63.677986 
	C412.907867,63.952965 412.726471,63.971146 412.271729,63.995075 
z"/>
<path fill="#5183C7" opacity="1.000000" stroke="none" 
	d="
M272.965576,227.300659 
	C273.173584,227.252808 273.423981,227.487122 273.810791,227.939758 
	C273.634125,227.966324 273.321045,227.774582 272.965576,227.300659 
z"/>
<path fill="#4D7FC8" opacity="1.000000" stroke="none" 
	d="
M357.262726,255.963409 
	C357.014313,255.854553 357.008331,255.676056 357.009216,255.229736 
	C357.179108,255.272522 357.342133,255.583160 357.262726,255.963409 
z"/>
<path fill="#5183C7" opacity="1.000000" stroke="none" 
	d="
M388.972046,44.728596 
	C388.740265,44.839634 388.483673,44.635868 388.141205,44.164673 
	C388.306610,44.127380 388.603912,44.299561 388.972046,44.728596 
z"/>
<path fill="#5183C7" opacity="1.000000" stroke="none" 
	d="
M387.971985,43.730812 
	C387.739532,43.842552 387.481049,43.637924 387.133972,43.165718 
	C387.299927,43.127934 387.600098,43.300037 387.971985,43.730812 
z"/>
<path fill="#4D7FC8" opacity="1.000000" stroke="none" 
	d="
M357.779572,75.087288 
	C358.019623,75.178589 357.608368,75.314812 357.608368,75.314812 
	C357.608368,75.314812 357.196930,75.185982 357.112762,75.064621 
	C357.198914,74.960831 357.369202,74.978409 357.779572,75.087288 
z"/>
<path fill="#5183C7" opacity="1.000000" stroke="none" 
	d="
M386.956116,42.748497 
	C386.743408,42.916203 386.481750,42.770405 386.106201,42.386650 
	C386.258759,42.313190 386.563721,42.408623 386.956116,42.748497 
z"/>
<path fill="#4D7FC8" opacity="1.000000" stroke="none" 
	d="
M289.710205,108.985352 
	C289.845947,109.184975 289.682831,109.440323 289.315247,109.830841 
	C289.258545,109.688118 289.358704,109.379799 289.710205,108.985352 
z"/>
<path fill="#5B86C5" opacity="1.000000" stroke="none" 
	d="
M414.019531,64.716614 
	C413.829987,64.766029 413.566254,64.544060 413.153503,64.109818 
	C413.318115,64.080116 413.631744,64.262672 414.019531,64.716614 
z"/>
<path fill="#4D7FC8" opacity="1.000000" stroke="none" 
	d="
M380.968903,82.746338 
	C380.759003,82.914757 380.508362,82.774132 380.146729,82.409714 
	C380.297729,82.332954 380.595215,82.416740 380.968903,82.746338 
z"/>
<path fill="#000000" opacity="1.000000" stroke="none" 
	d="
M339.167084,204.019974 
	C338.189270,208.162384 339.928955,210.986221 343.903839,211.708069 
	C346.618347,212.201019 348.891663,210.885818 349.293732,207.489136 
	C349.538177,205.424240 350.441132,203.445450 350.929321,201.399612 
	C352.008789,196.875748 353.013214,192.333939 353.864807,188.603073 
	C357.550476,189.672348 360.998596,190.672714 364.416626,191.664352 
	C361.384857,199.283707 358.217255,207.244415 354.932129,215.933685 
	C353.281128,224.791885 351.747681,232.921494 350.214203,241.051117 
	C350.214203,241.051117 350.069763,241.468536 349.679871,241.877533 
	C348.585541,249.193771 347.881134,256.101013 347.176697,263.008270 
	C347.134521,263.450531 347.092316,263.892761 346.937378,265.024048 
	C346.523560,268.105804 346.222443,270.498566 345.921295,272.891296 
	C345.921295,272.891296 345.469421,273.015411 344.876129,273.028687 
	C340.513855,273.319794 336.744843,273.597595 332.975861,273.875427 
	C332.975861,273.875427 333.007416,273.982452 333.019470,273.509766 
	C332.794983,269.596222 332.706757,266.137360 332.292511,262.718048 
	C331.272675,254.298965 330.461121,245.830475 328.890778,237.509247 
	C327.384033,229.524979 325.028137,221.700958 323.045380,213.806519 
	C323.045380,213.806519 322.998169,213.457153 323.005127,212.900879 
	C320.048370,205.710281 317.062744,199.085281 314.213531,192.402130 
	C314.115631,192.172485 315.384155,191.360275 316.361725,190.769623 
	C317.943268,190.128906 319.178894,189.538162 319.932861,189.177689 
	C321.128693,190.724045 322.041962,191.905029 322.955231,193.086014 
	C322.955231,193.086014 322.966949,193.021683 322.983826,193.436615 
	C323.768036,199.417435 328.173676,196.019547 330.795898,197.015488 
	C331.238647,195.337387 331.681396,193.659271 332.124146,191.981155 
	C332.847412,188.409790 333.570709,184.838440 334.989685,181.273682 
	C336.845917,188.860199 338.006500,196.440079 339.167084,204.019974 
z"/>
<path fill="#5183C7" opacity="1.000000" stroke="none" 
	d="
M323.029205,214.214813 
	C325.028137,221.700958 327.384033,229.524979 328.890778,237.509247 
	C330.461121,245.830475 331.272675,254.298965 332.292511,262.718048 
	C332.706757,266.137360 332.794983,269.596222 333.072937,273.493835 
	C332.409302,272.592224 331.255859,271.292694 331.068726,269.866364 
	C329.221741,255.788895 327.626099,241.678238 325.749023,227.605011 
	C325.166016,223.233826 323.943024,218.947998 323.029205,214.214813 
z"/>
<path fill="#5183C7" opacity="1.000000" stroke="none" 
	d="
M316.015808,190.819595 
	C315.384155,191.360275 314.115631,192.172485 314.213531,192.402130 
	C317.062744,199.085281 320.048370,205.710281 322.944336,212.735428 
	C320.785980,209.326202 318.625671,205.562317 316.629120,201.713501 
	C315.270111,199.093735 314.127899,196.360657 312.911743,193.667892 
	C311.772919,191.146378 312.366333,189.508514 315.661713,189.388687 
	C316.016785,190.044388 316.016296,190.431992 316.015808,190.819595 
z"/>
<path fill="#5183C7" opacity="1.000000" stroke="none" 
	d="
M350.479919,240.788940 
	C351.747681,232.921494 353.281128,224.791885 354.985443,216.320679 
	C354.888519,218.860138 354.850220,221.785583 354.303589,224.612732 
	C353.272186,229.947296 351.948090,235.225281 350.479919,240.788940 
z"/>
<path fill="#5183C7" opacity="1.000000" stroke="none" 
	d="
M339.343323,203.667007 
	C338.006500,196.440079 336.845917,188.860199 335.319031,181.045380 
	C335.072998,180.030197 335.193268,179.249908 335.313538,178.469635 
	C335.820923,178.414551 336.328308,178.359451 336.835724,178.304367 
	C337.600769,186.661606 340.089264,194.743759 339.343323,203.667007 
z"/>
<path fill="#5183C7" opacity="1.000000" stroke="none" 
	d="
M347.492249,262.803131 
	C347.881134,256.101013 348.585541,249.193771 349.636536,242.094086 
	C349.257965,248.800430 348.532867,255.699219 347.492249,262.803131 
z"/>
<path fill="#5B86C5" opacity="1.000000" stroke="none" 
	d="
M331.880463,192.212830 
	C331.681396,193.659271 331.238647,195.337387 330.795898,197.015488 
	C328.173676,196.019547 323.768036,199.417435 322.951965,193.443939 
	C325.871857,193.686874 329.106842,198.267487 331.880463,192.212830 
z"/>
<path fill="#5B86C5" opacity="1.000000" stroke="none" 
	d="
M316.361725,190.769623 
	C316.016296,190.431992 316.016785,190.044388 316.021118,189.367493 
	C321.522614,186.404999 322.002686,186.627838 322.967316,192.696060 
	C322.041962,191.905029 321.128693,190.724045 319.932861,189.177689 
	C319.178894,189.538162 317.943268,190.128906 316.361725,190.769623 
z"/>
<path fill="#5183C7" opacity="1.000000" stroke="none" 
	d="
M333.316101,274.110352 
	C336.744843,273.597595 340.513855,273.319794 344.655945,273.108765 
	C341.238129,273.565491 337.447235,273.955383 333.316101,274.110352 
z"/>
<path fill="#5183C7" opacity="1.000000" stroke="none" 
	d="
M346.189270,272.938416 
	C346.222443,270.498566 346.523560,268.105804 347.009583,265.350952 
	C346.948761,267.654419 346.703003,270.319946 346.189270,272.938416 
z"/>
<path fill="#4786DF" opacity="1.000000" stroke="none" 
	d="
M415.883728,85.980469 
	C418.560608,86.485672 421.004517,87.184578 423.729126,87.963776 
	C420.538696,91.974213 417.741699,91.074715 415.883728,85.980469 
z"/>
<path fill="#4786DF" opacity="1.000000" stroke="none" 
	d="
M427.278534,98.035019 
	C427.093140,98.105270 426.912384,98.060936 426.731598,98.016594 
	C426.915436,97.984543 427.099304,97.952492 427.278534,98.035019 
z"/>
<path fill="#3C75C6" opacity="1.000000" stroke="none" 
	d="
M310.041412,308.336090 
	C329.715759,308.102142 349.381683,308.084381 369.514008,308.096069 
	C367.874390,308.415161 365.769287,308.948181 363.662231,308.955994 
	C346.095642,309.021210 328.528687,308.989655 310.496765,308.986145 
	C310.031677,308.984985 310.033020,308.552277 310.041412,308.336090 
z"/>
<path fill="#4087EA" opacity="1.000000" stroke="none" 
	d="
M278.289917,57.850216 
	C277.854950,57.917030 277.682404,57.857655 277.583069,57.737675 
	C276.195740,56.061996 274.818390,54.378029 273.438599,52.696098 
	C275.492279,52.123482 277.540131,51.528439 279.604065,50.995525 
	C280.065247,50.876450 280.582733,50.975395 281.511993,50.973663 
	C282.894623,50.835117 283.839508,50.696877 286.353180,50.329121 
	C283.085297,53.428677 280.835876,55.562260 278.289917,57.850216 
z"/>
<path fill="#5183C7" opacity="1.000000" stroke="none" 
	d="
M313.095703,68.743118 
	C312.993378,68.734138 312.684814,68.555557 312.184265,68.192039 
	C312.291351,68.195908 312.590424,68.384712 313.095703,68.743118 
z"/>
</svg>